<svg xmlns="http://www.w3.org/2000/svg"
 xmlns:xlink="http://www.w3.org/1999/xlink"
 width="23px" height="20px"  viewBox="0 0 23 20">
<path fill-rule="evenodd"  fill="#ffffff"
 d="M17.624268,18.99054 C17.624268,18.99054 17.624268,17.673767 17.624268,17.673767 C17.624268,17.673767 20.506012,17.673767 20.506012,17.673767 C20.506012,17.673767 20.506012,14.954956 20.506012,14.954956 C20.506012,14.954956 21.992096,14.954956 21.992096,14.954956 C21.992096,14.954956 21.992096,18.99054 21.992096,18.99054 C21.992096,18.99054 17.624268,18.99054 17.624268,18.99054 ZM20.506012,3.3128662 C20.506012,3.3128662 17.624268,3.3128662 17.624268,3.3128662 C17.624268,3.3128662 17.624268,1.9960327 17.624268,1.9960327 C17.624268,1.9960327 21.992096,1.9960327 21.992096,1.9960327 C21.992096,1.9960327 21.992096,6.031616 21.992096,6.031616 C21.992096,6.031616 20.506012,6.031616 20.506012,6.031616 C20.506012,6.031616 20.506012,3.3128662 20.506012,3.3128662 ZM2.4924927,6.031616 C2.4924927,6.031616 1.0064087,6.031616 1.0064087,6.031616 C1.0064087,6.031616 1.0064087,1.9960327 1.0064087,1.9960327 C1.0064087,1.9960327 5.3743286,1.9960327 5.3743286,1.9960327 C5.3743286,1.9960327 5.3743286,3.3128662 5.3743286,3.3128662 C5.3743286,3.3128662 2.4924927,3.3128662 2.4924927,3.3128662 C2.4924927,3.3128662 2.4924927,6.031616 2.4924927,6.031616 ZM3.888214,4.7148438 C3.888214,4.7148438 19.11029,4.7148438 19.11029,4.7148438 C19.11029,4.7148438 19.11029,16.27185 19.11029,16.27185 C19.11029,16.27185 3.888214,16.27185 3.888214,16.27185 C3.888214,16.27185 3.888214,4.7148438 3.888214,4.7148438 ZM5.3743286,14.954956 C5.3743286,14.954956 17.624268,14.954956 17.624268,14.954956 C17.624268,14.954956 17.624268,6.031616 17.624268,6.031616 C17.624268,6.031616 5.3743286,6.031616 5.3743286,6.031616 C5.3743286,6.031616 5.3743286,14.954956 5.3743286,14.954956 ZM6.815277,7.433655 C6.815277,7.433655 16.228455,7.433655 16.228455,7.433655 C16.228455,7.433655 16.228455,13.5529175 16.228455,13.5529175 C16.228455,13.5529175 6.815277,13.5529175 6.815277,13.5529175 C6.815277,13.5529175 6.815277,7.433655 6.815277,7.433655 ZM2.4924927,17.673767 C2.4924927,17.673767 5.3743286,17.673767 5.3743286,17.673767 C5.3743286,17.673767 5.3743286,18.99054 5.3743286,18.99054 C5.3743286,18.99054 1.0064087,18.99054 1.0064087,18.99054 C1.0064087,18.99054 1.0064087,14.954956 1.0064087,14.954956 C1.0064087,14.954956 2.4924927,14.954956 2.4924927,14.954956 C2.4924927,14.954956 2.4924927,17.673767 2.4924927,17.673767 Z"/>
</svg>