<svg xmlns="http://www.w3.org/2000/svg"
 xmlns:xlink="http://www.w3.org/1999/xlink"
 width="24px" height="27px"  viewBox="0 0 24 27">
<path fill-rule="evenodd"  fill="#ffffff"
 d="M9.378906,19.69812 C9.378906,19.69812 5.3094788,15.462524 5.3094788,15.462524 C5.3094788,15.462524 17.93927,1.0021973 17.93927,1.0021973 C17.93927,1.0021973 22.008713,5.237671 22.008713,5.237671 C22.008713,5.237671 9.378906,19.69812 9.378906,19.69812 ZM7.687866,21.634216 C7.687866,21.634216 3.4342651,17.609558 3.4342651,17.609558 C3.4342651,17.609558 4.825577,16.016602 4.825577,16.016602 C4.825577,16.016602 8.895004,20.252197 8.895004,20.252197 C8.895004,20.252197 7.687866,21.634216 7.687866,21.634216 ZM1.0058899,25.008911 C1.0058899,25.008911 2.7414093,18.568054 2.7414093,18.568054 C2.7414093,18.568054 6.9978485,22.589294 6.9978485,22.589294 C6.9978485,22.589294 1.0058899,25.008911 1.0058899,25.008911 Z"/>
</svg>