<svg xmlns="http://www.w3.org/2000/svg"
 xmlns:xlink="http://www.w3.org/1999/xlink"
 width="28px" height="26px"  viewBox="0 0 28 26">
<path fill-rule="evenodd"  fill="#ffffff"
 d="M26.999756,14.006226 C26.999756,14.006226 18.147217,16.77533 18.147217,16.77533 C18.147217,16.77533 7.244629,7.21521 7.244629,7.21521 C7.244629,7.21521 15.69342,17.512756 15.69342,17.512756 C15.69342,17.512756 6.2262573,20.53064 6.2262573,20.53064 C6.2262573,20.53064 1.3515625,1.1820679 1.3515625,1.1820679 C1.3515625,1.1820679 26.999756,14.006226 26.999756,14.006226 ZM15.992126,19.030884 C15.992126,19.030884 15.992126,24.355469 15.992126,24.355469 C15.992126,24.355469 12.875732,19.955688 12.875732,19.955688 C12.875732,19.955688 15.992126,19.030884 15.992126,19.030884 Z"/>
</svg>