<svg xmlns="http://www.w3.org/2000/svg"
 xmlns:xlink="http://www.w3.org/1999/xlink"
 width="19px" height="19px"  viewBox="0 0 19 19">
<path fill-rule="evenodd"  fill="#ffffff"
 d="M1.9997559,1.9996948 C1.9997559,1.9996948 17.999573,1.9996948 17.999573,1.9996948 C17.999573,1.9996948 17.999573,5.999756 17.999573,5.999756 C17.999573,5.999756 1.9997559,5.999756 1.9997559,5.999756 C1.9997559,5.999756 1.9997559,1.9996948 1.9997559,1.9996948 ZM1.9997559,7.999817 C1.9997559,7.999817 17.999573,7.999817 17.999573,7.999817 C17.999573,7.999817 17.999573,11.999634 17.999573,11.999634 C17.999573,11.999634 1.9997559,11.999634 1.9997559,11.999634 C1.9997559,11.999634 1.9997559,7.999817 1.9997559,7.999817 ZM1.9997559,13.999756 C1.9997559,13.999756 17.999573,13.999756 17.999573,13.999756 C17.999573,13.999756 17.999573,17.999817 17.999573,17.999817 C17.999573,17.999817 1.9997559,17.999817 1.9997559,17.999817 C1.9997559,17.999817 1.9997559,13.999756 1.9997559,13.999756 Z"/>
</svg>